<svg width="12" height="7" viewBox="0 0 12 7" fill="currentColor" xmlns="http://www.w3.org/2000/svg">
<path d="M6.27295 4.52297C6.27295 4.10876 5.93716 3.77297 5.52295 3.77297C5.10874 3.77297 4.77295 4.10876 4.77295 4.52297H5.52295H6.27295ZM4.99262 6.0533C5.28551 6.3462 5.76039 6.3462 6.05328 6.0533L10.8263 1.28033C11.1191 0.987438 11.1191 0.512565 10.8263 0.219671C10.5334 -0.0732222 10.0585 -0.0732222 9.76559 0.219671L5.52295 4.46231L1.28031 0.219671C0.987415 -0.0732222 0.512542 -0.0732222 0.219648 0.219671C-0.073245 0.512565 -0.073245 0.987438 0.219648 1.28033L4.99262 6.0533ZM5.52295 4.52297H4.77295V5.52297H5.52295H6.27295V4.52297H5.52295Z" fill="currentColor"/>
</svg>
